#N canvas 637 312 593 382 10;
#X obj 35 264 dac~;
#X obj 40 235 *~;
#N canvas 0 22 542 489 fader 0;
#X obj 97 310 dbtorms;
#X obj 100 102 vsl 30 64 101 1 1 0 empty empty empty 0 -9 0 10 -203904
-1 -1 0 1;
#X obj 93 238 - 1;
#X msg 93 260 100 \$1;
#X obj 94 282 -;
#X obj 96 372 outlet~;
#X obj 98 348 line~;
#X msg 102 325 \$1 2;
#X connect 0 0 7 0;
#X connect 1 0 2 0;
#X connect 2 0 3 0;
#X connect 3 0 4 0;
#X connect 4 0 0 0;
#X connect 6 0 5 0;
#X connect 7 0 6 0;
#X coords 0 -1 1 1 30 70 2 100 100;
#X restore 77 209 pd fader;
#X obj 275 178 dac~;
#X obj 280 149 *~;
#N canvas 0 22 542 489 fader 0;
#X obj 97 310 dbtorms;
#X obj 100 102 vsl 30 64 101 1 1 0 empty empty empty 0 -9 0 10 -203904
-1 -1 0 1;
#X obj 93 238 - 1;
#X msg 93 260 100 \$1;
#X obj 94 282 -;
#X obj 96 372 outlet~;
#X obj 98 348 line~;
#X msg 102 325 \$1 2;
#X connect 0 0 7 0;
#X connect 1 0 2 0;
#X connect 2 0 3 0;
#X connect 3 0 4 0;
#X connect 4 0 0 0;
#X connect 6 0 5 0;
#X connect 7 0 6 0;
#X coords 0 -1 1 1 30 70 2 100 100;
#X restore 402 117 pd fader;
#X obj 279 39 osc~ 2;
#X obj 279 59 *~ 3;
#X obj 279 99 mtof~;
#X text 8 -44 creation paramters:;
#X text 35 -29 1 frequency;
#X text 35 -2 3 cut off frequency \, stops generating harmonics at
this frequency (cannot be higher than the nyquist limit);
#X text 327 82 default cut off frequency is nyquist limit;
#X obj 41 144 mtof;
#X floatatom 41 122 5 0 0 0 - - -;
#X msg 125 79 max \$1;
#X floatatom 125 59 5 0 734 0 - - -;
#X floatatom 165 106 5 0 22050 0 - - -;
#X msg 165 126 cutoff \$1;
#X floatatom 176 156 5 0 0 1 phase - -;
#X text 160 62 comment;
#X text 199 234 cutoff sets cutoff frequency \, 0 sets default (nyquist
limit). Any value greater than the nyquist limit will be ignored.;
#X obj 279 79 +~ 33;
#X obj 251 282 bandlimited~ saw 0 1;
#X obj 251 303 bl.tri~ 0 1;
#X text 217 291 see:;
#X obj 324 303 bl.saw~ 0 1;
#X obj 386 282 bl.rsaw~ 0 1;
#X obj 398 303 bl.sq~ 0 1;
#X text 327 66 default max harmonics is 1104;
#X text 35 -16 2 max number of generated harmonics;
#X obj 40 187 bl.sawtri~ 77 80 7000 1;
#X obj 279 120 bl.sawtri~ 0 0 0 1;
#X text 35 25 4 approximate waveform (less cpu);
#X text 269 -50 Generates a bandlimited saw triangle wave;
#X text 200 205 max method sets the max number of generated harmonics
\, 0 sets default (1104).;
#X obj 465 281 bl.pulse~ 0 1;
#X text 52 305 Apache License 2;
#X text 41 291 (C) Paulo Casaes \, 2010;
#X connect 1 0 0 0;
#X connect 1 0 0 1;
#X connect 2 0 1 1;
#X connect 4 0 3 0;
#X connect 4 0 3 1;
#X connect 5 0 4 1;
#X connect 6 0 7 0;
#X connect 7 0 22 0;
#X connect 8 0 32 0;
#X connect 13 0 31 0;
#X connect 14 0 13 0;
#X connect 15 0 31 1;
#X connect 16 0 15 0;
#X connect 17 0 18 0;
#X connect 18 0 31 1;
#X connect 19 0 31 1;
#X connect 22 0 8 0;
#X connect 31 0 1 0;
#X connect 32 0 4 0;
