#N canvas 566 593 450 300 10;
#X obj 91 34 inlet~ frequency;
#X obj 237 22 inlet fase;
#X obj 128 195 outlet~;
#X obj 119 66 testinlet~ \$1;
#X obj 228 49 route float type;
#X obj 115 129 bandlimited~ square \$1 \$2 \$3 \$4;
#X connect 0 0 3 0;
#X connect 1 0 4 0;
#X connect 3 0 5 0;
#X connect 4 0 5 1;
#X connect 4 2 5 0;
#X connect 5 0 2 0;
