#N canvas 656 388 593 439 10;
#X obj 35 278 dac~;
#X obj 40 249 *~;
#N canvas 0 22 542 489 fader 0;
#X obj 97 310 dbtorms;
#X obj 100 102 vsl 30 64 101 1 1 0 empty empty empty 0 -9 0 10 -203904
-1 -1 0 1;
#X obj 93 238 - 1;
#X msg 93 260 100 \$1;
#X obj 94 282 -;
#X obj 96 372 outlet~;
#X obj 98 348 line~;
#X msg 102 325 \$1 2;
#X connect 0 0 7 0;
#X connect 1 0 2 0;
#X connect 2 0 3 0;
#X connect 3 0 4 0;
#X connect 4 0 0 0;
#X connect 6 0 5 0;
#X connect 7 0 6 0;
#X coords 0 -1 1 1 30 70 2 100 100;
#X restore 77 223 pd fader;
#X text 8 -44 creation paramters:;
#X text 35 -29 1 frequency;
#X text 35 -16 2 max number of generated harmonics (non-zero harmonics)
;
#X text 35 -2 3 cut off frequency \, stops generating harmonics at
this frequency (cannot be higher than the nyquist limit);
#X obj 41 158 mtof;
#X floatatom 41 136 5 0 0 0 - - -;
#X text 9 348 (C) Paulo Casaes \, 2010 GPL v2;
#X msg 91 59 max \$1;
#X floatatom 91 39 5 0 734 0 - - -;
#X floatatom 120 85 5 0 22050 0 - - -;
#X msg 120 105 cutoff \$1;
#X floatatom 131 135 5 0 0 1 phase - -;
#X text 126 42 comment;
#X text 200 219 max method sets the max number of generated harmonis
\, 0 sets default (374).;
#X text 199 248 cutoff sets cutoff frequency \, 0 sets default (nyquist
limit). Any value greater than the nyquist limit will be ignored.;
#X obj 249 334 bandlimited~ saw 0 1;
#X obj 249 355 bl.tri~ 0 1;
#X text 215 343 see:;
#X obj 324 355 bl.saw~ 0 1;
#X obj 384 334 bl.rsaw~ 0 1;
#X obj 400 355 bl.sq~ 0 1;
#X obj 40 201 bl.vpulse~ 77 80 7000 0.75;
#X obj 464 334 bl.pulse~ 0 1;
#X text 198 294 the third inlet takes the pulse wave's duty cycle (0
- 1) as a signal \, 0.5 generates a square wave.;
#X text 238 -49 Genereates a bandlimited pulse wave a variable pulse
wave;
#X obj 210 125 osc~ 0.1;
#X obj 210 149 *~ 0.45;
#X obj 210 169 +~ 0.5;
#X text 270 140 oscilates between 0.5 and 0.95;
#X connect 1 0 0 0;
#X connect 1 0 0 1;
#X connect 2 0 1 1;
#X connect 7 0 24 0;
#X connect 8 0 7 0;
#X connect 10 0 24 1;
#X connect 11 0 10 0;
#X connect 12 0 13 0;
#X connect 13 0 24 1;
#X connect 14 0 24 1;
#X connect 24 0 1 0;
#X connect 28 0 29 0;
#X connect 29 0 30 0;
#X connect 30 0 24 2;
